<?xml version="1.0" encoding="UTF-8" standalone="no"?>
<!DOCTYPE svg PUBLIC "-//W3C//DTD SVG 1.1//EN" "http://www.w3.org/Graphics/SVG/1.1/DTD/svg11.dtd">
<svg version="1.1" xmlns="http://www.w3.org/2000/svg" xmlns:xlink="http://www.w3.org/1999/xlink" preserveAspectRatio="xMidYMid meet" viewBox="0 0 640 640" width="75" height="75"><defs><path d="M300.77 295.71C297.94 295.71 295.65 298 295.65 300.83C295.65 303.66 297.94 305.95 300.77 305.95C304.62 305.95 335.38 305.95 339.23 305.95C342.06 305.95 344.35 303.66 344.35 300.83C344.35 298 342.06 295.71 339.23 295.71C331.54 295.71 304.62 295.71 300.77 295.71Z" id="k24VijrYuY"></path><path d="M492.4 253.67C491.34 251.18 486.07 238.74 476.59 216.35C476.59 201.61 476.59 193.42 476.59 191.78C476.59 188.96 474.3 186.66 471.47 186.66C471.16 186.66 469.6 186.66 466.79 186.66C443.32 117.94 430.28 79.75 427.67 72.12C426.76 69.44 423.85 68.01 421.17 68.93C418.5 69.84 417.06 72.75 417.98 75.43C420.51 82.84 433.18 119.92 455.97 186.66C455.53 186.66 455.29 186.66 455.24 186.66C452.41 186.66 450.12 188.96 450.12 191.78C450.12 194.83 450.12 210.04 450.12 237.41C438.39 237.41 431.88 237.41 430.57 237.41C430.09 236.61 429.43 235.94 428.6 235.5C428.54 235.47 428.52 235.4 428.47 235.37C422.4 232.42 373.8 208.84 367.73 205.9C367.69 205.88 367.65 205.89 367.62 205.86C367.54 205.83 367.49 205.79 367.41 205.76C356.19 195.07 341.4 188.13 325.01 186.92C325.01 186.42 325.01 182.41 325.01 181.91C325.01 179.09 322.72 176.79 319.89 176.79C317.07 176.79 314.77 179.09 314.77 181.91C314.77 182.41 314.77 186.42 314.77 186.92C298.35 188.13 283.53 195.1 272.29 205.83C272.21 205.86 272.13 205.85 272.05 205.89C265.97 208.84 217.38 232.42 211.31 235.37C211.25 235.39 211.23 235.47 211.18 235.5C210.35 235.94 209.69 236.61 209.21 237.41C207.9 237.41 201.38 237.41 189.65 237.41C189.65 210.04 189.65 194.83 189.65 191.78C189.65 188.96 187.36 186.66 184.53 186.66C184.48 186.66 184.24 186.66 183.81 186.66C206.6 119.92 219.26 82.84 221.79 75.43C222.71 72.75 221.28 69.84 218.6 68.93C215.92 68 213.02 69.44 212.1 72.12C209.49 79.75 196.45 117.94 172.98 186.66C170.18 186.66 168.62 186.66 168.3 186.66C165.48 186.66 163.18 188.96 163.18 191.78C163.18 193.42 163.18 201.61 163.18 216.35C153.7 238.74 148.43 251.18 147.38 253.67C146.83 254.99 146.86 256.4 147.37 257.62C147.37 257.62 147.37 257.63 147.37 257.63C148.42 260.17 153.7 272.83 163.18 295.63C163.18 310.38 163.18 318.58 163.18 320.22C163.18 323.05 165.48 325.34 168.3 325.34C168.62 325.34 170.18 325.34 172.98 325.34C196.45 394.06 209.49 432.25 212.1 439.88C212.83 442.01 214.81 443.35 216.94 443.35C217.49 443.35 218.05 443.26 218.6 443.07C221.27 442.16 222.7 439.25 221.79 436.57C219.26 429.16 206.6 392.08 183.81 325.34C184.24 325.34 184.48 325.34 184.52 325.34C187.35 325.34 189.64 323.05 189.64 320.22C189.64 317.13 189.64 301.69 189.64 273.91C201.38 273.91 207.89 273.91 209.2 273.91C209.22 273.96 209.26 274 209.29 274.04C209.46 274.32 209.6 274.6 209.83 274.84C210.09 275.13 210.43 275.32 210.75 275.54C210.95 275.67 211.1 275.86 211.33 275.97C217.36 278.87 265.63 302.04 271.67 304.93C284.12 317.12 301.13 324.66 319.89 324.66C338.65 324.66 355.66 317.12 368.11 304.93C374.15 302.04 422.42 278.87 428.46 275.97C428.68 275.87 428.83 275.67 429.03 275.54C429.35 275.32 429.69 275.13 429.95 274.84C430.18 274.6 430.32 274.31 430.49 274.04C430.52 274 430.56 273.96 430.58 273.91C431.88 273.91 438.4 273.91 450.13 273.91C450.13 301.69 450.13 317.13 450.13 320.22C450.13 323.05 452.42 325.34 455.25 325.34C455.3 325.34 455.54 325.34 455.97 325.34C433.18 392.08 420.52 429.16 417.99 436.58C417.07 439.25 418.5 442.16 421.18 443.08C421.72 443.27 422.28 443.36 422.83 443.36C424.96 443.36 426.95 442.01 427.67 439.89C430.28 432.25 443.32 394.07 466.79 325.34C469.6 325.34 471.16 325.34 471.47 325.34C474.3 325.34 476.59 323.05 476.59 320.22C476.59 318.58 476.59 310.38 476.59 295.63C486.08 272.83 491.35 260.17 492.41 257.63C492.41 257.63 492.4 257.62 492.41 257.62C492.91 256.39 492.95 254.98 492.4 253.67ZM466.35 196.9L466.35 250.65L460.37 250.77L460.37 196.9L466.35 196.9ZM466.35 315.1L460.37 315.1L460.37 261.01L466.35 260.89L466.35 315.1ZM350.13 205.38C344.08 205.38 295.7 205.38 289.65 205.38C298.5 200.04 308.82 196.9 319.89 196.9C330.96 196.9 341.29 200.04 350.13 205.38ZM344.91 234.71C346.76 232.86 361.51 218.11 363.36 216.26C371.75 225.51 377.25 237.39 378.39 250.54C376.64 250.54 367.88 250.54 352.12 250.54C349.79 242.94 347.39 237.66 344.91 234.71ZM332.82 246.81C333.3 246.33 337.11 242.52 337.58 242.04C339.5 244.53 340.93 247.39 341.68 250.55C341.21 250.55 338.87 250.55 334.65 250.55C333.95 248.81 333.34 247.57 332.82 246.81ZM314.44 255.67C314.44 252.66 316.89 250.22 319.89 250.22C322.9 250.22 325.34 252.67 325.34 255.67C325.34 258.67 322.89 261.12 319.89 261.12C316.89 261.12 314.44 258.67 314.44 255.67ZM302.3 241.92C302.78 242.4 306.59 246.21 307.06 246.68C306.23 247.85 305.61 249.16 305.13 250.55C304.66 250.55 302.32 250.55 298.11 250.55C299.59 246.48 300.99 243.6 302.3 241.92ZM276.53 216.15C278.38 218 293.13 232.75 294.97 234.59C291.2 239.05 288.62 244.53 287.67 250.55C285.92 250.55 277.15 250.55 261.39 250.55C265.85 233.79 270.9 222.33 276.53 216.15ZM220.03 268.79L218.66 268.14L218.66 260.79C238.15 260.79 248.98 260.79 251.15 260.79C251.35 263.5 251.66 266.18 252.17 268.79C247.88 268.79 237.17 268.79 220.03 268.79ZM388.63 250.55C388.43 247.83 388.11 245.16 387.6 242.53C389.74 242.53 400.47 242.53 419.78 242.53L421.12 243.18L421.12 250.55C401.63 250.55 390.79 250.55 388.63 250.55ZM319.89 223C311.74 223 304.3 226.01 298.58 230.96C297.56 229.94 292.44 224.82 283.24 215.62L356.76 215.62L341.31 231.07C332.5 225.69 325.36 223 319.89 223ZM322.45 240.24C322.45 239.56 322.45 234.17 322.45 233.5C326.82 234 330.77 235.74 334.01 238.38C333.69 238.7 332.1 240.28 329.24 243.14C326.4 241.48 324.14 240.51 322.45 240.24ZM305.9 238.28C309.11 235.69 313.02 234 317.33 233.5C317.33 234.17 317.33 239.56 317.33 240.24C314.86 240.64 312.6 241.62 310.66 243.04C309.71 242.09 306.38 238.76 305.9 238.28ZM218.66 250.55L218.66 243.18L220 242.54C239.3 242.54 250.03 242.54 252.18 242.54C251.67 245.16 251.35 247.83 251.15 250.55C246.81 250.55 235.99 250.55 218.66 250.55ZM421.12 260.79L421.12 268.14L419.75 268.8C400.46 268.8 389.74 268.8 387.6 268.8C388.11 266.18 388.43 263.5 388.63 260.79C392.96 260.79 403.79 260.79 421.12 260.79ZM380.98 223.71C382.87 224.63 392.28 229.19 409.23 237.41L386.36 237.41C384.29 231.16 382.5 226.59 380.98 223.71ZM230.55 237.41C247.49 229.19 256.91 224.63 258.79 223.71C256.52 228.03 254.73 232.62 253.41 237.41C250.37 237.41 242.74 237.41 230.55 237.41ZM258.65 287.33C256.78 286.43 247.47 281.96 230.7 273.91L253.41 273.91C255.44 280.03 257.18 284.51 258.65 287.33ZM261.38 260.79C264.01 260.79 285.03 260.79 287.66 260.79C288.63 266.97 291.34 272.58 295.28 277.1C294.05 278.33 287.91 284.47 276.84 295.54C267.31 281.28 262.16 269.7 261.38 260.79ZM305.13 260.79C305.66 262.32 306.41 263.74 307.36 265.02C306.89 265.5 303.08 269.31 302.6 269.78C300.48 267.19 298.9 264.16 298.11 260.79C299.51 260.79 304.42 260.79 305.13 260.79ZM317.33 271.1C317.33 271.77 317.33 277.16 317.33 277.84C313.18 277.36 309.4 275.79 306.26 273.36C306.58 273.04 308.16 271.45 311.02 268.6C313.69 270.01 315.79 270.85 317.33 271.1ZM328.88 268.49C329.35 268.97 333.17 272.78 333.64 273.26C330.48 275.74 326.66 277.36 322.45 277.84C322.45 277.39 322.45 275.14 322.45 271.1C325.48 270.25 327.63 269.38 328.88 268.49ZM334.65 260.78C335.35 260.78 340.97 260.78 341.67 260.78C340.89 264.09 339.35 267.08 337.28 269.66C336.96 269.34 335.37 267.75 332.51 264.89C333.59 263.14 334.3 261.77 334.65 260.78ZM378.39 260.79C377.23 274.1 371.61 286.13 363.04 295.42C361.19 293.58 346.44 278.83 344.6 276.98C348.48 272.48 351.14 266.92 352.12 260.79C357.37 260.79 375.76 260.79 378.39 260.79ZM409.08 273.91C392.31 281.96 382.99 286.43 381.13 287.33C383.33 283.1 385.08 278.6 386.36 273.91C389.39 273.91 396.96 273.91 409.08 273.91ZM179.4 196.9L179.4 250.77L173.43 250.65C173.43 230.7 173.43 219.61 173.43 217.4C173.43 217.39 173.43 196.9 173.43 196.9C174.23 196.9 176.22 196.9 179.4 196.9ZM173.43 315.1L173.43 260.89L179.4 261.01L179.4 315.1L173.43 315.1ZM163.19 242.61L163.19 268.98L157.66 255.68L163.19 242.61ZM208.42 242.53L208.42 268.79L189.64 268.79L189.64 242.53L208.42 242.53ZM298.93 280.69C304.6 285.46 311.92 288.34 319.89 288.34C327.92 288.34 335.28 285.41 340.97 280.59C342.82 282.43 357.57 297.18 359.41 299.03C348.96 308.56 335.12 314.43 319.89 314.43C304.72 314.43 290.92 308.6 280.48 299.14C284.17 295.45 297.08 282.54 298.93 280.69ZM431.36 242.53L450.13 242.53L450.13 268.79L431.36 268.79L431.36 242.53ZM482.13 255.68L476.59 268.99L476.59 242.61L482.13 255.68Z" id="f4l1sCUIm"></path></defs><g><g><g><use xlink:href="#k24VijrYuY" opacity="1" fill="#f3ff00" fill-opacity="1"></use><g><use xlink:href="#k24VijrYuY" opacity="1" fill-opacity="0" stroke="#000000" stroke-width="1" stroke-opacity="0"></use></g></g><g><use xlink:href="#f4l1sCUIm" opacity="1" fill="#f3ff00" fill-opacity="1"></use><g><use xlink:href="#f4l1sCUIm" opacity="1" fill-opacity="0" stroke="#000000" stroke-width="1" stroke-opacity="0"></use></g></g></g></g></svg>